<?xml version="1.0" encoding="utf-8"?>
<!-- Generator: Adobe Illustrator 18.0.0, SVG Export Plug-In . SVG Version: 6.00 Build 0)  -->
<!DOCTYPE svg PUBLIC "-//W3C//DTD SVG 1.1//EN" "http://www.w3.org/Graphics/SVG/1.1/DTD/svg11.dtd">
<svg version="1.1" id="Layer_1" xmlns="http://www.w3.org/2000/svg" xmlns:xlink="http://www.w3.org/1999/xlink" x="0px" y="0px"
	 viewBox="0 0 204.4 39" enable-background="new 0 0 204.4 39" xml:space="preserve">
<g>
	<path fill="#EF6456" d="M9,7v9.8l19,0v7.4l-19,0V39H0V0h28.1l-0.1,7H9z"/>
	<path fill="#EF6456" d="M51.4,39H41.3l8.4-12.9c-4.8-2.3-7.4-6.5-7.4-12.6C42.3,4.8,48.2,0,58.5,0H76v39h-9V28h-8.5h-0.8L51.4,39z
		 M67,20V7h-8.5c-4.9,0-7.7,2-7.7,6.4c0,4.5,2.8,6.6,7.7,6.6H67z"/>
	<path fill="#EF6456" d="M92,39V0h9v39H92z"/>
	<path fill="#EF6456" d="M134.8,0c12.2,0,20.8,7.8,20.8,19.5c0,11.6-8.6,19.5-21.1,19.5H118V0H134.8z M127,32h8
		c6.6,0,11.4-5.2,11.4-12.4c0-7.3-5.1-12.6-11.8-12.6H127V32z"/>
	<path fill="#EF6456" d="M173.5,31l-3.1,8h-9.2l17.1-39h9.2l16.9,39h-9.5l-3.1-8H173.5z M182.7,8.7L176.4,24h12.5L182.7,8.7z"/>
</g>
</svg>
